<?xml version="1.0" encoding="utf-8" ?>
<svg xmlns="http://www.w3.org/2000/svg" xmlns:xlink="http://www.w3.org/1999/xlink" width="20" height="20"
  viewBox="0 0 20 20">
  <defs>
    <clipPath id="clipPath4376548384">
      <path d="M0 0L20 0L20 20L0 20L0 0Z" fill-rule="nonzero" transform="matrix(1 0 0 1 0 0)" />
    </clipPath>
  </defs>
  <g clip-path="url(#clipPath4376548384)">
    <path
      d="M-0.833333 0C-0.833333 0.460233 -0.460233 0.833333 0 0.833333L11.6667 0.833333C12.1269 0.833333 12.5 0.460233 12.5 0C12.5 -0.460233 12.1269 -0.833333 11.6667 -0.833333L0 -0.833333C-0.460233 -0.833333 -0.833333 -0.460233 -0.833333 0Z"
      fill-rule="evenodd" transform="matrix(1 0 0 1 4.16667 10)" fill="#06605a" />
    <path
      d="M-0.589256 -0.589256C-0.91469 -0.263821 -0.91469 0.263822 -0.589256 0.589256L4.65482 5.83333L-0.589256 11.0774C-0.91469 11.4028 -0.91469 11.9305 -0.589256 12.2559C-0.263822 12.5814 0.263822 12.5814 0.589256 12.2559L6.42259 6.42259Q6.48063 6.36455 6.52622 6.29631Q6.57182 6.22806 6.60323 6.15224Q6.63464 6.07641 6.65065 5.99591Q6.66667 5.91541 6.66667 5.83333Q6.66667 5.75126 6.65065 5.67076Q6.63464 5.59026 6.60323 5.51443Q6.57182 5.4386 6.52622 5.37036Q6.48063 5.30211 6.42259 5.24408L0.589256 -0.589256C0.263821 -0.91469 -0.263822 -0.91469 -0.589256 -0.589256Z"
      fill-rule="evenodd" transform="matrix(1 0 0 1 10 4.16667)" fill="#06605a" />
  </g>
</svg>